<svg xmlns="http://www.w3.org/2000/svg" viewBox="0 0 64 64" fill="none">
  <!-- Sfondo blu scuro -->
  <rect width="64" height="64" rx="14" fill="#1E3A5F"/>
  
  <!-- Libro aperto stilizzato - bianco per massimo contrasto -->
  <g transform="translate(12, 14)">
    <!-- Pagina sinistra -->
    <path 
      d="M2 4C2 2.89543 2.89543 2 4 2H18C19.1046 2 20 2.89543 20 4V32C20 33.1046 19.1046 34 18 34H4C2.89543 34 2 33.1046 2 32V4Z" 
      fill="#FFFFFF" 
      opacity="0.95"
    />
    
    <!-- Pagina destra -->
    <path 
      d="M20 4C20 2.89543 20.8954 2 22 2H36C37.1046 2 38 2.89543 38 4V32C38 33.1046 37.1046 34 36 34H22C20.8954 34 20 33.1046 20 32V4Z" 
      fill="#FFFFFF"
      opacity="0.9"
    />
    
    <!-- Dorso centrale - ombra leggera -->
    <rect x="19" y="2" width="2" height="32" fill="#1E3A5F" opacity="0.15"/>
    
    <!-- Righe di testo - pagina sinistra -->
    <line x1="6" y1="9" x2="16" y2="9" stroke="#1E3A5F" stroke-width="1.5" stroke-linecap="round" opacity="0.4"/>
    <line x1="6" y1="14" x2="14" y2="14" stroke="#1E3A5F" stroke-width="1.5" stroke-linecap="round" opacity="0.4"/>
    <line x1="6" y1="19" x2="16" y2="19" stroke="#1E3A5F" stroke-width="1.5" stroke-linecap="round" opacity="0.4"/>
    <line x1="6" y1="24" x2="12" y2="24" stroke="#1E3A5F" stroke-width="1.5" stroke-linecap="round" opacity="0.4"/>
    
    <!-- Righe di testo - pagina destra -->
    <line x1="24" y1="9" x2="34" y2="9" stroke="#1E3A5F" stroke-width="1.5" stroke-linecap="round" opacity="0.4"/>
    <line x1="24" y1="14" x2="32" y2="14" stroke="#1E3A5F" stroke-width="1.5" stroke-linecap="round" opacity="0.4"/>
    <line x1="24" y1="19" x2="34" y2="19" stroke="#1E3A5F" stroke-width="1.5" stroke-linecap="round" opacity="0.4"/>
    <line x1="24" y1="24" x2="30" y2="24" stroke="#1E3A5F" stroke-width="1.5" stroke-linecap="round" opacity="0.4"/>
  </g>
</svg>
